{"title":"Wolf Town 2010 DVDrip English Klam","uid":6520661,"size":1472863487,"categoryP":"video","categoryS":"movies","magnet":"?xt=urn:btih:e5cea649f3caa4d925230851ce55dcc4ea2a6c77&amp;dn=Wolf+Town+2010+DVDrip+English+Klam&amp;tr=udp%3A%2F%2Ftracker.openbittorrent.com%3A80&amp;tr=udp%3A%2F%2Fopen.demonii.com%3A1337&amp;tr=udp%3A%2F%2Ftracker.coppersurfer.tk%3A6969&amp;tr=udp%3A%2F%2Fexodus.desync.com%3A6969","seeders":1,"leechers":0,"uploader":"Klambake","files":-1,"time":1309978606,"description":"With: Levi Fiehler, Alicia Ziegler and Josh Kelly\n\nKyle is een student en heeft het niet zo op wolven. Wanneer hij samen met zijn vriendin en vrienden vastzit in een oud dorpje dat de sfeer van een western uitademt, ontdekken ze dat ze niet alleen zijn; er lopen wolven rond. Hij zal zijn grootste angst moeten overwinnen en alles geven om zijn vriendin en vrienden in veiligheid brengen...\n\nKyle, a shy college student finds himself and three of his friends trapped in an old western ghost town by a pack of ferocious wolves and has to overcome his personal fears to confront the wolves and lead his friends to safety. \n\n------------------ Dutch Friends ------------------\nYou can find my Friends at: http://www.Film-Test.nl \n------ They got my dutchs subs ---- and more ------\n\nGeneral:\n\nComplete name                    : Wolf Town\\Wolf Town.avi\nFormat                           : AVI\nFormat/Info                      : Audio Video Interleave\nFile size                        : 1.37 GiB\nDuration                         : 1h 24mn\nOverall bit rate                 : 2 320 Kbps\n\nVideo:\n\nFormat                           : MPEG-4 Visual\nFormat profile                   : Simple@L3\nFormat settings, BVOP            : No\nFormat settings, QPel            : No\nFormat settings, GMC             : No warppoints\nFormat settings, Matrix          : Default (H.263)\nCodec ID                         : XVID\nCodec ID/Hint                    : XviD\nDuration                         : 1h 24mn\nBit rate                         : 1 862 Kbps\nWidth                            : 720 pixels\nHeight                           : 304 pixels\nDisplay aspect ratio             : 2.35:1\nFrame rate                       : 25.000 fps\nColor space                      : YUV\nChroma subsampling               : 4:2:0\nBit depth                        : 8 bits\nScan type                        : Progressive\nBits/(Pixel*Frame)               : 0.340\nStream size                      : 1.10 GiB (80%)\nWriting library                  : XviD 1.1.2 (UTC 2006-11-01)\n\nAudio:\n\nFormat                           : AC-3\nFormat/Info                      : Audio Coding 3\nMode extension                   : CM (complete main)\nCodec ID                         : 2000\nDuration                         : 1h 24mn\nBit rate mode                    : Constant\nBit rate                         : 448 Kbps\nChannel(s)                       : 6 channels\nChannel positions                : Front: L C R, Side: L R, LFE\nSampling rate                    : 48.0 KHz\nBit depth                        : 16 bits\nStream size                      : 271 MiB (19%)\nAlignment                        : Aligned on interleaves\nInterleave, duration             : 32 ms (0.80 video frame)\nInterleave, preload duration     : 160 ms\n\n","torrent":{"xt":"urn:btih:e5cea649f3caa4d925230851ce55dcc4ea2a6c77","amp;dn":"Wolf+Town+2010+DVDrip+English+Klam","amp;tr":["udp%3A%2F%2Ftracker.openbittorrent.com%3A80","udp%3A%2F%2Fopen.demonii.com%3A1337","udp%3A%2F%2Ftracker.coppersurfer.tk%3A6969","udp%3A%2F%2Fexodus.desync.com%3A6969"],"infoHash":"e5cea649f3caa4d925230851ce55dcc4ea2a6c77","infoHashBuffer":{"type":"Buffer","data":[229,206,166,73,243,202,164,217,37,35,8,81,206,85,220,196,234,42,108,119]},"announce":[],"urlList":[]}}